<svg xmlns="http://www.w3.org/2000/svg" xmlns:svg="http://www.w3.org/2000/svg" id="svg5010" width="22" height="50" version="1.1" viewBox="0 0 22 50"><metadata id="metadata5015"/><g id="layer1" transform="translate(853.38768,324.12503)"><path style="opacity:1;fill:#f9f9f9;fill-rule:evenodd;stroke:none;stroke-width:.43340939px;stroke-linecap:butt;stroke-linejoin:miter;stroke-opacity:1" id="path4183-6-6" d="m -785.4869,-323.03508 c 1.27151,0.27597 2.32934,1.15312 2.83594,2.35156 l 0.01,-0.002 8.67382,20.72266 c 0.31305,0.58107 0.47744,1.23059 0.47852,1.89062 -4.9e-4,0.68326 -0.17599,1.355 -0.50977,1.95118 l -8.58203,20.33593 c -0.044,0.11816 -0.0935,0.23418 -0.14844,0.34766 l -0.0742,0.17773 -0.01,-0.004 c -0.69798,1.29273 -2.04844,2.09881 -3.51757,2.0996 -0.14297,-0.001 -0.28575,-0.0106 -0.42774,-0.0273 l 0,0.0391 14.7754,0 0,-49.88281 -13.50391,0 z"/><path style="opacity:1;fill:#f9f9f9;stroke:none" id="path4198" d="m -817.37108,-322.40012 z m 0,1e-5 c 0.54142,0.12026 1.05197,0.35156 1.49947,0.67926 l 0.0291,-0.0117 0.17028,0.16248 c 0.1338,0.11299 0.25999,0.23462 0.37785,0.36411 l 21.5701,20.67744 0,0.002 c 0.90745,0.76201 1.43123,1.88642 1.43093,3.07138 0,1.16856 -0.51396,2.27806 -1.40156,3.0381 l 0,0.006 -21.47418,20.56977 c -0.76142,0.90443 -1.88325,1.42665 -3.06551,1.42705 7.11202,0.0207 19.03889,0.0128 26.40709,0.0117 l 0,-49.9974 c -8.51458,-6.6e-4 -17.02936,9.4e-4 -25.54385,-9e-5"/><path style="display:inline;opacity:1;fill:#f9f9f9;fill-rule:evenodd;stroke:none;stroke-width:.43340939px;stroke-linecap:butt;stroke-linejoin:miter;stroke-opacity:1" id="path4183-6-2" d="m -851.84628,-324.12496 a 4.0092271,4.0092271 0 0 1 2.14947,1.26071 l 0.0529,-0.0156 15.11484,21.49477 a 4.0092271,4.0092271 0 0 1 0.0822,0.1155 l 0.10767,0.15466 0,0.0333 a 4.0092271,4.0092271 0 0 1 0.52661,1.97721 4.0092271,4.0092271 0 0 1 -0.96904,2.61344 l -14.56868,20.54338 a 4.0092271,4.0092271 0 0 1 -0.1292,0.18206 l -0.32692,0.46199 -0.0431,-0.0254 a 4.0092271,4.0092271 0 0 1 -2.84836,1.19221 4.0092271,4.0092271 0 0 1 -0.42871,-0.0314 l 0,0.0431 21.76101,0 0,-49.99984 -20.48072,0 z"/></g></svg>